# xmcd CD database file
#
# Track frame offsets:
#	183
#	12523
#	25773
#	40908
#	56310
#	68455
#	82183
#	92835
#	110200
#	122180
#
# Disc length: 1767 seconds
#
# Revision: 2
# Processed by: cddbd v1.5.2PL0 Copyright (c) Steve Scherf et al.
# Submitted via: CDex 1.70beta2
#
DISCID=8106e50a
DTITLE=The Wagoneers - Good Fortune
DYEAR=1989
DGENRE=Country
TTITLE0=Sit A Little Closer
TTITLE1=Everybody Call My Baby Honey
TTITLE2=For Favor Senor
TTITLE3=Take Me
TTITLE4=Champagne And Chandeliers
TTITLE5=Good Fortune
TTITLE6=She Wouldn't Have It
TTITLE7=Atlanta
TTITLE8=Test Of TIme
TTITLE9=I Can't Stay
EXTD=YEAR: 1989
EXTT0=
EXTT1=
EXTT2=
EXTT3=
EXTT4=
EXTT5=
EXTT6=
EXTT7=
EXTT8=
EXTT9=
PLAYORDER=
